<svg width="24" height="24" viewBox="0 0 24 24" fill="none" xmlns="http://www.w3.org/2000/svg">
<path d="M5.28571 22.9091V18.2182C4.24524 17.2727 3.4375 16.1682 2.8625 14.9045C2.2875 13.6409 2 12.3091 2 10.9091C2 8.18182 2.95833 5.86364 4.875 3.95455C6.79167 2.04546 9.11905 1.09091 11.8571 1.09091C14.1389 1.09091 16.1605 1.75909 17.922 3.09546C19.6835 4.43182 20.829 6.17273 21.3583 8.31818L22.7821 13.9091C22.8734 14.2545 22.8095 14.5682 22.5905 14.85C22.3714 15.1318 22.0794 15.2727 21.7143 15.2727H19.5238V18.5455C19.5238 19.1455 19.3093 19.6591 18.8804 20.0864C18.4514 20.5136 17.9357 20.7273 17.3333 20.7273H15.1429V22.9091H12.9524V18.5455H17.3333V13.0909H20.2905L19.25 8.86364C18.8302 7.20909 17.9357 5.86364 16.5667 4.82728C15.1976 3.79091 13.6278 3.27273 11.8571 3.27273C9.73968 3.27273 7.93254 4.00909 6.43571 5.48182C4.93889 6.95455 4.19048 8.74546 4.19048 10.8545C4.19048 11.9455 4.41409 12.9818 4.86131 13.9636C5.30853 14.9455 5.94286 15.8182 6.76429 16.5818L7.47619 17.2364V22.9091H5.28571ZM10.7619 15.2727H12.9524L13.1167 13.9091C13.2627 13.8545 13.395 13.7909 13.5137 13.7182C13.6323 13.6455 13.7373 13.5636 13.8286 13.4727L15.0881 14.0182L16.1833 12.1636L15.0881 11.3455C15.1246 11.2 15.1429 11.0545 15.1429 10.9091C15.1429 10.7636 15.1246 10.6182 15.0881 10.4727L16.1833 9.65455L15.0881 7.8L13.8286 8.34546C13.7373 8.25455 13.6323 8.17273 13.5137 8.1C13.395 8.02728 13.2627 7.96364 13.1167 7.90909L12.9524 6.54546H10.7619L10.5976 7.90909C10.4516 7.96364 10.3192 8.02728 10.2006 8.1C10.0819 8.17273 9.97698 8.25455 9.88571 8.34546L8.62619 7.8L7.53095 9.65455L8.62619 10.4727C8.58968 10.6182 8.57143 10.7636 8.57143 10.9091C8.57143 11.0545 8.58968 11.2 8.62619 11.3455L7.53095 12.1636L8.62619 14.0182L9.88571 13.4727C9.97698 13.5636 10.0819 13.6455 10.2006 13.7182C10.3192 13.7909 10.4516 13.8545 10.5976 13.9091L10.7619 15.2727ZM11.8571 12.5455C11.4008 12.5455 11.0129 12.3864 10.6935 12.0682C10.374 11.75 10.2143 11.3636 10.2143 10.9091C10.2143 10.4545 10.374 10.0682 10.6935 9.75C11.0129 9.43182 11.4008 9.27273 11.8571 9.27273C12.3135 9.27273 12.7014 9.43182 13.0208 9.75C13.3403 10.0682 13.5 10.4545 13.5 10.9091C13.5 11.3636 13.3403 11.75 13.0208 12.0682C12.7014 12.3864 12.3135 12.5455 11.8571 12.5455Z" fill="currentColor"/>
</svg>
